<svg width="23" height="22" viewBox="0 0 23 22" fill="none" xmlns="http://www.w3.org/2000/svg">
<rect width="6.9109" height="1.72772" transform="matrix(-0.711315 0.702874 0.711315 0.702874 5.0127 15.9282)" fill="white"/>
<path fill-rule="evenodd" clip-rule="evenodd" d="M12.1405 18.316C7.59404 18.316 4.07605 14.5743 4.07605 10.1756C4.07605 5.77682 7.59404 2.03511 12.1405 2.03511C16.687 2.03511 20.205 5.77682 20.205 10.1756C20.205 14.5743 16.687 18.316 12.1405 18.316ZM12.1405 20.3511C6.6419 20.3511 2.18438 15.7954 2.18438 10.1756C2.18438 4.55576 6.6419 0 12.1405 0C17.6392 0 22.0967 4.55576 22.0967 10.1756C22.0967 15.7954 17.6392 20.3511 12.1405 20.3511Z" fill="white"/>
</svg>
